<?xml version="1.0" standalone="no"?>
<!DOCTYPE svg PUBLIC "-//W3C//DTD SVG 20010904//EN"
 "http://www.w3.org/TR/2001/REC-SVG-20010904/DTD/svg10.dtd">
<svg version="1.0" xmlns="http://www.w3.org/2000/svg"
 width="345.000000pt" height="269.000000pt" viewBox="0 0 345.000000 269.000000"
 preserveAspectRatio="xMidYMid meet">

<g transform="translate(0.000000,269.000000) scale(0.100000,-0.100000)"
fill="#000000" stroke="none">
<path d="M204 2404 c-38 -18 -58 -54 -57 -97 2 -33 930 -1811 1001 -1916 46
-69 139 -146 222 -185 l65 -31 350 0 c336 0 352 1 396 21 77 36 127 91 247
274 63 96 149 227 191 290 42 63 80 122 85 130 5 8 -25 -18 -66 -58 -91 -89
-88 -95 -88 137 0 139 -2 162 -13 147 -13 -17 -14 -17 -31 -1 -9 10 -20 14
-24 10 -4 -3 -9 -112 -10 -241 l-4 -233 -81 -92 -82 -93 -8 325 c-7 320 -6
384 8 425 6 18 0 25 -39 44 -25 12 -46 24 -46 26 0 3 6 2 13 -2 8 -5 8 -2 -2
9 -7 9 -20 17 -29 17 -8 0 -37 16 -63 35 -27 19 -56 35 -65 35 -12 0 -15 6
-11 21 3 12 2 18 -2 13 -22 -26 -165 -227 -376 -529 -386 -551 -415 -589 -431
-572 -3 3 87 143 201 311 l206 306 -227 448 c-125 246 -281 553 -346 682 -65
129 -125 240 -132 245 -7 6 -18 19 -24 31 -6 11 -35 33 -64 50 l-53 29 -290 3
c-247 2 -295 0 -321 -14z"/>
<path d="M2380 1280 c0 -5 5 -10 10 -10 6 0 10 5 10 10 0 6 -4 10 -10 10 -5 0
-10 -4 -10 -10z"/>
<path d="M2730 1043 c0 -17 8 -33 20 -41 17 -10 22 -9 36 13 18 28 17 33 -12
38 -10 1 -25 6 -31 10 -9 6 -13 0 -13 -20z"/>
<path d="M2731 954 c0 -11 3 -14 6 -6 3 7 2 16 -1 19 -3 4 -6 -2 -5 -13z"/>
</g>
</svg>
